<svg xmlns="http://www.w3.org/2000/svg" xmlns:xlink="http://www.w3.org/1999/xlink" width="60" zoomAndPan="magnify" viewBox="0 0 375 374.999991" height="70" preserveAspectRatio="xMidYMid meet" version="1.0"><defs><clipPath id="id1"><path d="M 1 1 L 373 1 L 373 373 L 1 373 Z M 1 1 " clip-rule="nonzero"/></clipPath><clipPath id="id2"><path d="M 372.453125 186.75 C 372.453125 189.789062 372.378906 192.828125 372.230469 195.863281 C 372.082031 198.898438 371.859375 201.925781 371.558594 204.953125 C 371.261719 207.976562 370.890625 210.992188 370.445312 214 C 370 217.003906 369.480469 220 368.886719 222.980469 C 368.292969 225.960938 367.628906 228.925781 366.890625 231.871094 C 366.148438 234.820312 365.339844 237.75 364.457031 240.65625 C 363.574219 243.566406 362.621094 246.449219 361.597656 249.3125 C 360.574219 252.171875 359.480469 255.007812 358.316406 257.816406 C 357.15625 260.625 355.925781 263.402344 354.625 266.148438 C 353.324219 268.894531 351.960938 271.609375 350.527344 274.289062 C 349.09375 276.96875 347.597656 279.613281 346.035156 282.222656 C 344.472656 284.828125 342.847656 287.394531 341.15625 289.921875 C 339.46875 292.449219 337.71875 294.933594 335.910156 297.375 C 334.097656 299.816406 332.230469 302.210938 330.300781 304.558594 C 328.375 306.910156 326.390625 309.210938 324.347656 311.460938 C 322.308594 313.714844 320.210938 315.914062 318.0625 318.0625 C 315.914062 320.210938 313.714844 322.308594 311.460938 324.347656 C 309.210938 326.390625 306.910156 328.375 304.558594 330.300781 C 302.210938 332.230469 299.816406 334.097656 297.375 335.910156 C 294.933594 337.71875 292.449219 339.46875 289.921875 341.15625 C 287.394531 342.847656 284.828125 344.472656 282.222656 346.035156 C 279.613281 347.597656 276.96875 349.09375 274.289062 350.527344 C 271.609375 351.960938 268.894531 353.324219 266.148438 354.625 C 263.402344 355.925781 260.625 357.15625 257.816406 358.316406 C 255.007812 359.480469 252.171875 360.574219 249.3125 361.597656 C 246.449219 362.621094 243.566406 363.574219 240.65625 364.457031 C 237.75 365.339844 234.820312 366.148438 231.871094 366.890625 C 228.925781 367.628906 225.960938 368.292969 222.980469 368.886719 C 220 369.480469 217.003906 370 214 370.445312 C 210.992188 370.890625 207.976562 371.261719 204.953125 371.558594 C 201.925781 371.859375 198.898438 372.082031 195.863281 372.230469 C 192.828125 372.378906 189.789062 372.453125 186.75 372.453125 C 183.710938 372.453125 180.671875 372.378906 177.636719 372.230469 C 174.601562 372.082031 171.574219 371.859375 168.546875 371.558594 C 165.523438 371.261719 162.507812 370.890625 159.5 370.445312 C 156.496094 370 153.5 369.480469 150.519531 368.886719 C 147.539062 368.292969 144.574219 367.628906 141.628906 366.890625 C 138.679688 366.148438 135.75 365.339844 132.84375 364.457031 C 129.933594 363.574219 127.050781 362.621094 124.1875 361.597656 C 121.328125 360.574219 118.492188 359.480469 115.683594 358.316406 C 112.875 357.15625 110.097656 355.925781 107.351562 354.625 C 104.605469 353.324219 101.890625 351.960938 99.210938 350.527344 C 96.53125 349.09375 93.886719 347.597656 91.277344 346.035156 C 88.671875 344.472656 86.105469 342.847656 83.578125 341.15625 C 81.050781 339.46875 78.566406 337.71875 76.125 335.910156 C 73.683594 334.097656 71.289062 332.230469 68.941406 330.300781 C 66.589844 328.375 64.289062 326.390625 62.039062 324.347656 C 59.785156 322.308594 57.585938 320.210938 55.4375 318.0625 C 53.289062 315.914062 51.191406 313.714844 49.152344 311.460938 C 47.109375 309.210938 45.125 306.910156 43.199219 304.558594 C 41.269531 302.210938 39.402344 299.816406 37.589844 297.375 C 35.78125 294.933594 34.03125 292.449219 32.34375 289.921875 C 30.652344 287.394531 29.027344 284.828125 27.464844 282.222656 C 25.902344 279.613281 24.40625 276.96875 22.972656 274.289062 C 21.539062 271.609375 20.175781 268.894531 18.875 266.148438 C 17.574219 263.402344 16.34375 260.625 15.183594 257.816406 C 14.019531 255.007812 12.925781 252.171875 11.902344 249.3125 C 10.878906 246.449219 9.925781 243.566406 9.042969 240.65625 C 8.160156 237.75 7.347656 234.820312 6.609375 231.871094 C 5.871094 228.925781 5.207031 225.960938 4.613281 222.980469 C 4.019531 220 3.5 217.003906 3.054688 214 C 2.609375 210.992188 2.238281 207.976562 1.941406 204.953125 C 1.640625 201.925781 1.417969 198.898438 1.269531 195.863281 C 1.121094 192.828125 1.046875 189.789062 1.046875 186.75 C 1.046875 183.710938 1.121094 180.671875 1.269531 177.636719 C 1.417969 174.601562 1.640625 171.574219 1.941406 168.546875 C 2.238281 165.523438 2.609375 162.507812 3.054688 159.5 C 3.5 156.496094 4.019531 153.5 4.613281 150.519531 C 5.207031 147.539062 5.871094 144.574219 6.609375 141.628906 C 7.347656 138.679688 8.160156 135.75 9.042969 132.84375 C 9.925781 129.933594 10.878906 127.050781 11.902344 124.1875 C 12.925781 121.328125 14.019531 118.492188 15.183594 115.683594 C 16.34375 112.875 17.574219 110.097656 18.875 107.351562 C 20.175781 104.605469 21.539062 101.890625 22.972656 99.210938 C 24.40625 96.53125 25.902344 93.886719 27.464844 91.277344 C 29.027344 88.671875 30.652344 86.105469 32.34375 83.578125 C 34.03125 81.050781 35.78125 78.566406 37.589844 76.125 C 39.402344 73.683594 41.269531 71.289062 43.199219 68.941406 C 45.125 66.589844 47.109375 64.289062 49.152344 62.039062 C 51.191406 59.785156 53.289062 57.585938 55.4375 55.4375 C 57.585938 53.289062 59.785156 51.191406 62.039062 49.152344 C 64.289062 47.109375 66.589844 45.125 68.941406 43.199219 C 71.289062 41.269531 73.683594 39.402344 76.125 37.589844 C 78.566406 35.78125 81.050781 34.03125 83.578125 32.34375 C 86.105469 30.652344 88.671875 29.027344 91.277344 27.464844 C 93.886719 25.902344 96.53125 24.40625 99.210938 22.972656 C 101.890625 21.539062 104.605469 20.175781 107.351562 18.875 C 110.097656 17.574219 112.875 16.34375 115.683594 15.183594 C 118.492188 14.019531 121.328125 12.925781 124.1875 11.902344 C 127.050781 10.878906 129.933594 9.925781 132.84375 9.042969 C 135.75 8.160156 138.679688 7.347656 141.628906 6.609375 C 144.574219 5.871094 147.539062 5.207031 150.519531 4.613281 C 153.5 4.019531 156.496094 3.5 159.5 3.054688 C 162.507812 2.609375 165.523438 2.238281 168.546875 1.941406 C 171.574219 1.640625 174.601562 1.417969 177.636719 1.269531 C 180.671875 1.121094 183.710938 1.046875 186.75 1.046875 C 189.789062 1.046875 192.828125 1.121094 195.863281 1.269531 C 198.898438 1.417969 201.925781 1.640625 204.953125 1.941406 C 207.976562 2.238281 210.992188 2.609375 214 3.054688 C 217.003906 3.5 220 4.019531 222.980469 4.613281 C 225.960938 5.207031 228.925781 5.871094 231.871094 6.609375 C 234.820312 7.347656 237.75 8.160156 240.65625 9.042969 C 243.566406 9.925781 246.449219 10.878906 249.3125 11.902344 C 252.171875 12.925781 255.007812 14.019531 257.816406 15.183594 C 260.625 16.34375 263.402344 17.574219 266.148438 18.875 C 268.894531 20.175781 271.609375 21.539062 274.289062 22.972656 C 276.96875 24.40625 279.613281 25.902344 282.222656 27.464844 C 284.828125 29.027344 287.394531 30.652344 289.921875 32.34375 C 292.449219 34.03125 294.933594 35.78125 297.375 37.589844 C 299.816406 39.402344 302.210938 41.269531 304.558594 43.199219 C 306.910156 45.125 309.210938 47.109375 311.460938 49.152344 C 313.714844 51.191406 315.914062 53.289062 318.0625 55.4375 C 320.210938 57.585938 322.308594 59.785156 324.347656 62.039062 C 326.390625 64.289062 328.375 66.589844 330.300781 68.941406 C 332.230469 71.289062 334.097656 73.683594 335.910156 76.125 C 337.71875 78.566406 339.46875 81.050781 341.15625 83.578125 C 342.847656 86.105469 344.472656 88.671875 346.035156 91.277344 C 347.597656 93.886719 349.09375 96.527344 350.527344 99.210938 C 351.960938 101.890625 353.324219 104.605469 354.625 107.351562 C 355.925781 110.097656 357.15625 112.875 358.316406 115.683594 C 359.480469 118.492188 360.574219 121.328125 361.597656 124.1875 C 362.621094 127.050781 363.574219 129.933594 364.457031 132.84375 C 365.339844 135.75 366.148438 138.679688 366.890625 141.628906 C 367.628906 144.574219 368.292969 147.539062 368.886719 150.519531 C 369.480469 153.5 370 156.496094 370.445312 159.5 C 370.890625 162.507812 371.261719 165.523438 371.558594 168.546875 C 371.859375 171.574219 372.082031 174.601562 372.230469 177.636719 C 372.378906 180.671875 372.453125 183.710938 372.453125 186.75 Z M 372.453125 186.75 " clip-rule="nonzero"/></clipPath><linearGradient x1="48.842112" gradientTransform="matrix(0.747, 0, 0, 0.747, 0.0000045, -0)" y1="-32.394399" x2="451.157628" gradientUnits="userSpaceOnUse" y2="532.394577" id="id3"><stop stop-opacity="1" stop-color="rgb(15.299988%, 10.998535%, 87.5%)" offset="0"/><stop stop-opacity="1" stop-color="rgb(15.299988%, 10.998535%, 87.5%)" offset="0.03125"/><stop stop-opacity="1" stop-color="rgb(15.299988%, 10.998535%, 87.5%)" offset="0.046875"/><stop stop-opacity="1" stop-color="rgb(15.341187%, 11.050415%, 87.510681%)" offset="0.0546875"/><stop stop-opacity="1" stop-color="rgb(15.539551%, 11.297607%, 87.565613%)" offset="0.0625"/><stop stop-opacity="1" stop-color="rgb(15.85083%, 11.685181%, 87.651062%)" offset="0.0703125"/><stop stop-opacity="1" stop-color="rgb(16.162109%, 12.072754%, 87.738037%)" offset="0.078125"/><stop stop-opacity="1" stop-color="rgb(16.473389%, 12.460327%, 87.825012%)" offset="0.0859375"/><stop stop-opacity="1" stop-color="rgb(16.784668%, 12.846375%, 87.911987%)" offset="0.09375"/><stop stop-opacity="1" stop-color="rgb(17.095947%, 13.233948%, 87.997437%)" offset="0.101563"/><stop stop-opacity="1" stop-color="rgb(17.408752%, 13.621521%, 88.084412%)" offset="0.109375"/><stop stop-opacity="1" stop-color="rgb(17.720032%, 14.009094%, 88.171387%)" offset="0.117188"/><stop stop-opacity="1" stop-color="rgb(18.031311%, 14.396667%, 88.256836%)" offset="0.125"/><stop stop-opacity="1" stop-color="rgb(18.34259%, 14.784241%, 88.343811%)" offset="0.132812"/><stop stop-opacity="1" stop-color="rgb(18.65387%, 15.171814%, 88.430786%)" offset="0.140625"/><stop stop-opacity="1" stop-color="rgb(18.965149%, 15.559387%, 88.516235%)" offset="0.148438"/><stop stop-opacity="1" stop-color="rgb(19.276428%, 15.94696%, 88.60321%)" offset="0.15625"/><stop stop-opacity="1" stop-color="rgb(19.589233%, 16.333008%, 88.690186%)" offset="0.164062"/><stop stop-opacity="1" stop-color="rgb(19.900513%, 16.720581%, 88.775635%)" offset="0.171875"/><stop stop-opacity="1" stop-color="rgb(20.211792%, 17.108154%, 88.86261%)" offset="0.179688"/><stop stop-opacity="1" stop-color="rgb(20.523071%, 17.495728%, 88.949585%)" offset="0.1875"/><stop stop-opacity="1" stop-color="rgb(20.834351%, 17.883301%, 89.035034%)" offset="0.195312"/><stop stop-opacity="1" stop-color="rgb(21.14563%, 18.270874%, 89.122009%)" offset="0.203125"/><stop stop-opacity="1" stop-color="rgb(21.456909%, 18.658447%, 89.208984%)" offset="0.210938"/><stop stop-opacity="1" stop-color="rgb(21.769714%, 19.046021%, 89.294434%)" offset="0.21875"/><stop stop-opacity="1" stop-color="rgb(22.080994%, 19.432068%, 89.381409%)" offset="0.226562"/><stop stop-opacity="1" stop-color="rgb(22.392273%, 19.819641%, 89.468384%)" offset="0.234375"/><stop stop-opacity="1" stop-color="rgb(22.703552%, 20.207214%, 89.553833%)" offset="0.242188"/><stop stop-opacity="1" stop-color="rgb(23.014832%, 20.594788%, 89.640808%)" offset="0.25"/><stop stop-opacity="1" stop-color="rgb(23.326111%, 20.982361%, 89.727783%)" offset="0.257813"/><stop stop-opacity="1" stop-color="rgb(23.63739%, 21.369934%, 89.813232%)" offset="0.265625"/><stop stop-opacity="1" stop-color="rgb(23.950195%, 21.757507%, 89.900208%)" offset="0.273438"/><stop stop-opacity="1" stop-color="rgb(24.261475%, 22.145081%, 89.987183%)" offset="0.28125"/><stop stop-opacity="1" stop-color="rgb(24.572754%, 22.532654%, 90.072632%)" offset="0.289062"/><stop stop-opacity="1" stop-color="rgb(24.884033%, 22.918701%, 90.159607%)" offset="0.296875"/><stop stop-opacity="1" stop-color="rgb(25.195312%, 23.306274%, 90.246582%)" offset="0.304688"/><stop stop-opacity="1" stop-color="rgb(25.506592%, 23.693848%, 90.332031%)" offset="0.3125"/><stop stop-opacity="1" stop-color="rgb(25.819397%, 24.081421%, 90.419006%)" offset="0.320313"/><stop stop-opacity="1" stop-color="rgb(26.130676%, 24.468994%, 90.505981%)" offset="0.328125"/><stop stop-opacity="1" stop-color="rgb(26.441956%, 24.856567%, 90.591431%)" offset="0.335938"/><stop stop-opacity="1" stop-color="rgb(26.753235%, 25.244141%, 90.678406%)" offset="0.34375"/><stop stop-opacity="1" stop-color="rgb(27.064514%, 25.631714%, 90.765381%)" offset="0.351562"/><stop stop-opacity="1" stop-color="rgb(27.375793%, 26.017761%, 90.85083%)" offset="0.359375"/><stop stop-opacity="1" stop-color="rgb(27.687073%, 26.405334%, 90.937805%)" offset="0.367188"/><stop stop-opacity="1" stop-color="rgb(27.999878%, 26.792908%, 91.02478%)" offset="0.375"/><stop stop-opacity="1" stop-color="rgb(28.311157%, 27.180481%, 91.111755%)" offset="0.382813"/><stop stop-opacity="1" stop-color="rgb(28.622437%, 27.568054%, 91.197205%)" offset="0.390625"/><stop stop-opacity="1" stop-color="rgb(28.933716%, 27.955627%, 91.28418%)" offset="0.398438"/><stop stop-opacity="1" stop-color="rgb(29.244995%, 28.343201%, 91.371155%)" offset="0.40625"/><stop stop-opacity="1" stop-color="rgb(29.556274%, 28.730774%, 91.456604%)" offset="0.414062"/><stop stop-opacity="1" stop-color="rgb(29.867554%, 29.118347%, 91.543579%)" offset="0.416"/><stop stop-opacity="1" stop-color="rgb(30.024719%, 29.312134%, 91.58783%)" offset="0.421875"/><stop stop-opacity="1" stop-color="rgb(30.180359%, 29.504395%, 91.630554%)" offset="0.429688"/><stop stop-opacity="1" stop-color="rgb(30.491638%, 29.891968%, 91.716003%)" offset="0.4375"/><stop stop-opacity="1" stop-color="rgb(30.802917%, 30.279541%, 91.802979%)" offset="0.445313"/><stop stop-opacity="1" stop-color="rgb(31.114197%, 30.667114%, 91.889954%)" offset="0.453125"/><stop stop-opacity="1" stop-color="rgb(31.425476%, 31.054688%, 91.975403%)" offset="0.460938"/><stop stop-opacity="1" stop-color="rgb(31.736755%, 31.442261%, 92.062378%)" offset="0.46875"/><stop stop-opacity="1" stop-color="rgb(32.048035%, 31.829834%, 92.149353%)" offset="0.476562"/><stop stop-opacity="1" stop-color="rgb(32.36084%, 32.217407%, 92.234802%)" offset="0.484375"/><stop stop-opacity="1" stop-color="rgb(32.672119%, 32.603455%, 92.321777%)" offset="0.492188"/><stop stop-opacity="1" stop-color="rgb(32.983398%, 32.991028%, 92.408752%)" offset="0.5"/><stop stop-opacity="1" stop-color="rgb(33.294678%, 33.378601%, 92.494202%)" offset="0.507812"/><stop stop-opacity="1" stop-color="rgb(33.605957%, 33.766174%, 92.581177%)" offset="0.515625"/><stop stop-opacity="1" stop-color="rgb(33.917236%, 34.153748%, 92.668152%)" offset="0.523437"/><stop stop-opacity="1" stop-color="rgb(34.228516%, 34.541321%, 92.753601%)" offset="0.53125"/><stop stop-opacity="1" stop-color="rgb(34.541321%, 34.928894%, 92.840576%)" offset="0.539062"/><stop stop-opacity="1" stop-color="rgb(34.8526%, 35.316467%, 92.927551%)" offset="0.546875"/><stop stop-opacity="1" stop-color="rgb(35.163879%, 35.704041%, 93.013%)" offset="0.554688"/><stop stop-opacity="1" stop-color="rgb(35.475159%, 36.090088%, 93.099976%)" offset="0.5625"/><stop stop-opacity="1" stop-color="rgb(35.786438%, 36.477661%, 93.186951%)" offset="0.570312"/><stop stop-opacity="1" stop-color="rgb(36.097717%, 36.865234%, 93.2724%)" offset="0.578125"/><stop stop-opacity="1" stop-color="rgb(36.410522%, 37.252808%, 93.359375%)" offset="0.584"/><stop stop-opacity="1" stop-color="rgb(36.566162%, 37.446594%, 93.403625%)" offset="0.585938"/><stop stop-opacity="1" stop-color="rgb(36.721802%, 37.640381%, 93.44635%)" offset="0.59375"/><stop stop-opacity="1" stop-color="rgb(37.033081%, 38.027954%, 93.531799%)" offset="0.601563"/><stop stop-opacity="1" stop-color="rgb(37.34436%, 38.415527%, 93.618774%)" offset="0.609375"/><stop stop-opacity="1" stop-color="rgb(37.65564%, 38.803101%, 93.70575%)" offset="0.617188"/><stop stop-opacity="1" stop-color="rgb(37.966919%, 39.189148%, 93.791199%)" offset="0.625"/><stop stop-opacity="1" stop-color="rgb(38.278198%, 39.576721%, 93.878174%)" offset="0.632812"/><stop stop-opacity="1" stop-color="rgb(38.591003%, 39.964294%, 93.965149%)" offset="0.640625"/><stop stop-opacity="1" stop-color="rgb(38.902283%, 40.351868%, 94.050598%)" offset="0.648437"/><stop stop-opacity="1" stop-color="rgb(39.213562%, 40.739441%, 94.137573%)" offset="0.65625"/><stop stop-opacity="1" stop-color="rgb(39.524841%, 41.127014%, 94.224548%)" offset="0.664062"/><stop stop-opacity="1" stop-color="rgb(39.836121%, 41.514587%, 94.309998%)" offset="0.671875"/><stop stop-opacity="1" stop-color="rgb(40.1474%, 41.902161%, 94.396973%)" offset="0.679688"/><stop stop-opacity="1" stop-color="rgb(40.458679%, 42.289734%, 94.483948%)" offset="0.6875"/><stop stop-opacity="1" stop-color="rgb(40.771484%, 42.675781%, 94.570923%)" offset="0.695312"/><stop stop-opacity="1" stop-color="rgb(41.082764%, 43.063354%, 94.656372%)" offset="0.703125"/><stop stop-opacity="1" stop-color="rgb(41.394043%, 43.450928%, 94.743347%)" offset="0.710938"/><stop stop-opacity="1" stop-color="rgb(41.705322%, 43.838501%, 94.830322%)" offset="0.71875"/><stop stop-opacity="1" stop-color="rgb(42.016602%, 44.226074%, 94.915771%)" offset="0.726563"/><stop stop-opacity="1" stop-color="rgb(42.327881%, 44.613647%, 95.002747%)" offset="0.734375"/><stop stop-opacity="1" stop-color="rgb(42.63916%, 45.001221%, 95.089722%)" offset="0.742188"/><stop stop-opacity="1" stop-color="rgb(42.951965%, 45.388794%, 95.175171%)" offset="0.75"/><stop stop-opacity="1" stop-color="rgb(43.263245%, 45.776367%, 95.262146%)" offset="0.757812"/><stop stop-opacity="1" stop-color="rgb(43.574524%, 46.162415%, 95.349121%)" offset="0.765625"/><stop stop-opacity="1" stop-color="rgb(43.885803%, 46.549988%, 95.43457%)" offset="0.773437"/><stop stop-opacity="1" stop-color="rgb(44.197083%, 46.937561%, 95.521545%)" offset="0.78125"/><stop stop-opacity="1" stop-color="rgb(44.508362%, 47.325134%, 95.608521%)" offset="0.789062"/><stop stop-opacity="1" stop-color="rgb(44.821167%, 47.712708%, 95.69397%)" offset="0.796875"/><stop stop-opacity="1" stop-color="rgb(45.132446%, 48.100281%, 95.780945%)" offset="0.804688"/><stop stop-opacity="1" stop-color="rgb(45.443726%, 48.487854%, 95.86792%)" offset="0.8125"/><stop stop-opacity="1" stop-color="rgb(45.755005%, 48.875427%, 95.953369%)" offset="0.820312"/><stop stop-opacity="1" stop-color="rgb(46.066284%, 49.261475%, 96.040344%)" offset="0.828125"/><stop stop-opacity="1" stop-color="rgb(46.377563%, 49.649048%, 96.127319%)" offset="0.835938"/><stop stop-opacity="1" stop-color="rgb(46.688843%, 50.036621%, 96.212769%)" offset="0.84375"/><stop stop-opacity="1" stop-color="rgb(47.001648%, 50.424194%, 96.299744%)" offset="0.851563"/><stop stop-opacity="1" stop-color="rgb(47.312927%, 50.811768%, 96.386719%)" offset="0.859375"/><stop stop-opacity="1" stop-color="rgb(47.624207%, 51.199341%, 96.472168%)" offset="0.867188"/><stop stop-opacity="1" stop-color="rgb(47.935486%, 51.586914%, 96.559143%)" offset="0.875"/><stop stop-opacity="1" stop-color="rgb(48.246765%, 51.974487%, 96.646118%)" offset="0.882812"/><stop stop-opacity="1" stop-color="rgb(48.558044%, 52.362061%, 96.731567%)" offset="0.890625"/><stop stop-opacity="1" stop-color="rgb(48.869324%, 52.748108%, 96.818542%)" offset="0.898437"/><stop stop-opacity="1" stop-color="rgb(49.182129%, 53.135681%, 96.905518%)" offset="0.90625"/><stop stop-opacity="1" stop-color="rgb(49.493408%, 53.523254%, 96.990967%)" offset="0.914062"/><stop stop-opacity="1" stop-color="rgb(49.804688%, 53.910828%, 97.077942%)" offset="0.921875"/><stop stop-opacity="1" stop-color="rgb(50.115967%, 54.298401%, 97.164917%)" offset="0.929688"/><stop stop-opacity="1" stop-color="rgb(50.427246%, 54.685974%, 97.250366%)" offset="0.9375"/><stop stop-opacity="1" stop-color="rgb(50.590515%, 54.888916%, 97.296143%)" offset="1"/></linearGradient><clipPath id="id4"><path d="M 0 0 L 373.5 0 L 373.5 373.5 L 0 373.5 Z M 0 0 " clip-rule="nonzero"/></clipPath><clipPath id="id5"><path d="M 8.90625 8.128906 L 365.90625 8.128906 L 365.90625 365.128906 L 8.90625 365.128906 Z M 8.90625 8.128906 " clip-rule="nonzero"/></clipPath></defs><g clip-path="url(#id1)"><g clip-path="url(#id2)"><path fill="url(#id3)" d="M 1.046875 1.046875 L 1.046875 372.453125 L 372.453125 372.453125 L 372.453125 1.046875 Z M 1.046875 1.046875 " fill-rule="nonzero"/></g></g><g clip-path="url(#id4)"><path fill="rgb(41.178894%, 0%, 100%)" d="M 186.75 373.5 C 83.738281 373.5 0 289.761719 0 186.75 C 0 83.738281 83.738281 0 186.75 0 C 289.6875 0 373.5 83.738281 373.5 186.75 C 373.5 289.761719 289.6875 373.5 186.75 373.5 Z M 186.75 2.089844 C 84.933594 2.089844 2.089844 84.933594 2.089844 186.75 C 2.089844 288.566406 84.933594 371.410156 186.75 371.410156 C 288.566406 371.410156 371.410156 288.566406 371.410156 186.75 C 371.410156 84.933594 288.566406 2.089844 186.75 2.089844 Z M 186.75 2.089844 " fill-opacity="1" fill-rule="nonzero"/></g><g clip-path="url(#id5)"><path fill="rgb(0%, 0%, 0%)" d="M 187.40625 8.128906 C 88.820312 8.128906 8.90625 88.042969 8.90625 186.628906 C 8.90625 285.214844 88.820312 365.128906 187.40625 365.128906 C 285.992188 365.128906 365.90625 285.214844 365.90625 186.628906 C 365.90625 88.042969 285.992188 8.128906 187.40625 8.128906 Z M 256.238281 256.476562 L 239.96875 256.476562 L 239.96875 149.796875 L 238.804688 149.796875 L 194.753906 255.515625 L 180.042969 255.515625 L 135.992188 149.796875 L 134.828125 149.796875 L 134.828125 256.476562 L 118.558594 256.476562 L 118.558594 116.78125 L 138.792969 116.78125 L 186.628906 232.371094 L 188.183594 232.371094 L 236.003906 116.78125 L 256.238281 116.78125 Z M 256.238281 256.476562 " fill-opacity="1" fill-rule="nonzero"/></g></svg>