<svg xmlns="http://www.w3.org/2000/svg" xmlns:xlink="http://www.w3.org/1999/xlink" width="150" zoomAndPan="magnify" viewBox="0 0 375 374.999991" height="150" preserveAspectRatio="xMidYMid meet" version="1.0"><defs><g/><clipPath id="id1"><path d="M 117 112 L 268 112 L 268 263 L 117 263 Z M 117 112 " clip-rule="nonzero"/></clipPath><clipPath id="id2"><path d="M 87.183594 173.617188 L 206.21875 82.347656 L 297.492188 201.382812 L 178.457031 292.652344 Z M 87.183594 173.617188 " clip-rule="nonzero"/></clipPath><clipPath id="id3"><path d="M 87.183594 173.617188 L 206.21875 82.347656 L 297.492188 201.382812 L 178.457031 292.652344 Z M 87.183594 173.617188 " clip-rule="nonzero"/></clipPath><clipPath id="id4"><path d="M 251.855469 141.863281 C 252.601562 142.835938 253.324219 143.828125 254.023438 144.839844 C 254.722656 145.847656 255.394531 146.875 256.042969 147.917969 C 256.691406 148.960938 257.3125 150.015625 257.90625 151.089844 C 258.503906 152.164062 259.074219 153.25 259.617188 154.351562 C 260.15625 155.453125 260.671875 156.566406 261.160156 157.691406 C 261.648438 158.820312 262.109375 159.957031 262.539062 161.105469 C 262.972656 162.253906 263.375 163.414062 263.75 164.582031 C 264.125 165.75 264.472656 166.929688 264.789062 168.113281 C 265.105469 169.300781 265.394531 170.492188 265.652344 171.691406 C 265.914062 172.890625 266.140625 174.097656 266.339844 175.308594 C 266.539062 176.519531 266.710938 177.734375 266.851562 178.953125 C 266.988281 180.175781 267.101562 181.394531 267.179688 182.621094 C 267.257812 183.84375 267.308594 185.070312 267.328125 186.300781 C 267.347656 187.527344 267.339844 188.753906 267.296875 189.980469 C 267.257812 191.207031 267.1875 192.433594 267.085938 193.65625 C 266.984375 194.878906 266.855469 196.097656 266.695312 197.316406 C 266.53125 198.53125 266.34375 199.746094 266.121094 200.953125 C 265.902344 202.160156 265.652344 203.359375 265.375 204.554688 C 265.09375 205.75 264.785156 206.9375 264.449219 208.121094 C 264.109375 209.300781 263.746094 210.46875 263.351562 211.632812 C 262.957031 212.792969 262.53125 213.945312 262.082031 215.089844 C 261.628906 216.230469 261.148438 217.359375 260.644531 218.476562 C 260.136719 219.59375 259.601562 220.699219 259.039062 221.789062 C 258.480469 222.882812 257.890625 223.960938 257.277344 225.023438 C 256.664062 226.085938 256.023438 227.132812 255.359375 228.164062 C 254.691406 229.195312 254.003906 230.210938 253.285156 231.207031 C 252.570312 232.203125 251.832031 233.183594 251.070312 234.144531 C 250.304688 235.105469 249.519531 236.046875 248.710938 236.96875 C 247.898438 237.894531 247.066406 238.796875 246.214844 239.675781 C 245.359375 240.558594 244.484375 241.417969 243.589844 242.257812 C 242.691406 243.097656 241.777344 243.914062 240.839844 244.707031 C 239.902344 245.5 238.949219 246.269531 237.976562 247.015625 C 237 247.765625 236.007812 248.488281 235 249.183594 C 233.992188 249.882812 232.964844 250.554688 231.921875 251.203125 C 230.878906 251.851562 229.820312 252.472656 228.75 253.070312 C 227.675781 253.664062 226.589844 254.234375 225.488281 254.777344 C 224.386719 255.320312 223.273438 255.835938 222.144531 256.324219 C 221.019531 256.808594 219.882812 257.269531 218.734375 257.703125 C 217.585938 258.132812 216.425781 258.539062 215.257812 258.914062 C 214.085938 259.289062 212.910156 259.632812 211.726562 259.949219 C 210.539062 260.269531 209.347656 260.554688 208.148438 260.816406 C 206.945312 261.074219 205.742188 261.304688 204.53125 261.503906 C 203.320312 261.703125 202.105469 261.871094 200.882812 262.011719 C 199.664062 262.152344 198.441406 262.261719 197.21875 262.339844 C 195.992188 262.421875 194.765625 262.46875 193.539062 262.492188 C 192.3125 262.511719 191.085938 262.5 189.859375 262.457031 C 188.632812 262.417969 187.40625 262.347656 186.183594 262.246094 C 184.960938 262.144531 183.738281 262.015625 182.523438 261.855469 C 181.304688 261.695312 180.09375 261.503906 178.886719 261.285156 C 177.679688 261.0625 176.476562 260.8125 175.28125 260.535156 C 174.085938 260.253906 172.898438 259.949219 171.71875 259.609375 C 170.539062 259.273438 169.367188 258.90625 168.207031 258.511719 C 167.042969 258.117188 165.890625 257.691406 164.75 257.242188 C 163.609375 256.789062 162.480469 256.3125 161.363281 255.804688 C 160.242188 255.296875 159.140625 254.761719 158.046875 254.203125 C 156.957031 253.640625 155.878906 253.054688 154.816406 252.4375 C 153.753906 251.824219 152.707031 251.183594 151.675781 250.519531 C 150.644531 249.855469 149.628906 249.164062 148.632812 248.449219 C 147.632812 247.734375 146.65625 246.992188 145.695312 246.230469 C 144.734375 245.46875 143.789062 244.679688 142.867188 243.871094 C 141.945312 243.0625 141.042969 242.230469 140.160156 241.375 C 139.28125 240.523438 138.417969 239.648438 137.582031 238.75 C 136.742188 237.855469 135.925781 236.9375 135.132812 236 C 134.339844 235.066406 133.566406 234.109375 132.820312 233.136719 C 132.074219 232.164062 131.351562 231.171875 130.652344 230.160156 C 129.957031 229.152344 129.28125 228.125 128.636719 227.082031 C 127.988281 226.039062 127.363281 224.984375 126.769531 223.910156 C 126.171875 222.835938 125.605469 221.75 125.0625 220.648438 C 124.519531 219.546875 124.003906 218.433594 123.515625 217.308594 C 123.027344 216.179688 122.570312 215.042969 122.136719 213.894531 C 121.703125 212.746094 121.300781 211.585938 120.925781 210.417969 C 120.550781 209.25 120.203125 208.070312 119.886719 206.886719 C 119.570312 205.699219 119.28125 204.507812 119.023438 203.308594 C 118.765625 202.109375 118.535156 200.902344 118.335938 199.691406 C 118.136719 198.480469 117.96875 197.265625 117.828125 196.046875 C 117.6875 194.824219 117.578125 193.605469 117.496094 192.378906 C 117.417969 191.15625 117.367188 189.929688 117.347656 188.699219 C 117.328125 187.472656 117.339844 186.246094 117.378906 185.019531 C 117.421875 183.792969 117.492188 182.566406 117.589844 181.34375 C 117.691406 180.121094 117.824219 178.902344 117.984375 177.683594 C 118.144531 176.46875 118.335938 175.253906 118.554688 174.046875 C 118.773438 172.839844 119.023438 171.640625 119.304688 170.445312 C 119.582031 169.25 119.890625 168.0625 120.230469 166.878906 C 120.566406 165.699219 120.933594 164.53125 121.328125 163.367188 C 121.722656 162.207031 122.144531 161.054688 122.597656 159.910156 C 123.046875 158.769531 123.527344 157.640625 124.035156 156.523438 C 124.542969 155.40625 125.074219 154.300781 125.636719 153.210938 C 126.199219 152.117188 126.785156 151.039062 127.398438 149.976562 C 128.015625 148.914062 128.652344 147.867188 129.320312 146.835938 C 129.984375 145.804688 130.675781 144.789062 131.390625 143.792969 C 132.105469 142.796875 132.84375 141.816406 133.609375 140.855469 C 134.371094 139.894531 135.160156 138.953125 135.96875 138.03125 C 136.777344 137.105469 137.609375 136.203125 138.464844 135.324219 C 139.316406 134.441406 140.191406 133.582031 141.089844 132.742188 C 141.984375 131.902344 142.902344 131.085938 143.835938 130.292969 C 144.773438 129.5 145.726562 128.730469 146.703125 127.984375 C 147.675781 127.234375 148.667969 126.511719 149.675781 125.816406 C 150.6875 125.117188 151.714844 124.445312 152.753906 123.796875 C 153.796875 123.148438 154.855469 122.527344 155.929688 121.929688 C 157.003906 121.335938 158.089844 120.765625 159.191406 120.222656 C 160.292969 119.679688 161.40625 119.164062 162.53125 118.675781 C 163.65625 118.191406 164.796875 117.730469 165.945312 117.296875 C 167.09375 116.867188 168.253906 116.460938 169.421875 116.085938 C 170.589844 115.710938 171.765625 115.367188 172.953125 115.046875 C 174.136719 114.730469 175.332031 114.445312 176.53125 114.183594 C 177.730469 113.925781 178.9375 113.695312 180.148438 113.496094 C 181.359375 113.296875 182.574219 113.128906 183.792969 112.988281 C 185.011719 112.847656 186.234375 112.738281 187.460938 112.660156 C 188.683594 112.578125 189.910156 112.527344 191.136719 112.507812 C 192.363281 112.488281 193.59375 112.5 194.820312 112.539062 C 196.046875 112.582031 197.269531 112.652344 198.492188 112.753906 C 199.71875 112.855469 200.9375 112.984375 202.152344 113.144531 C 203.371094 113.304688 204.582031 113.496094 205.789062 113.714844 C 207 113.9375 208.199219 114.1875 209.394531 114.464844 C 210.589844 114.746094 211.777344 115.050781 212.957031 115.390625 C 214.136719 115.726562 215.308594 116.09375 216.472656 116.488281 C 217.632812 116.882812 218.785156 117.308594 219.925781 117.757812 C 221.066406 118.210938 222.199219 118.6875 223.316406 119.195312 C 224.433594 119.703125 225.539062 120.238281 226.628906 120.796875 C 227.722656 121.359375 228.796875 121.945312 229.859375 122.5625 C 230.925781 123.175781 231.972656 123.816406 233.003906 124.480469 C 234.035156 125.144531 235.046875 125.835938 236.046875 126.550781 C 237.042969 127.265625 238.023438 128.007812 238.984375 128.769531 C 239.945312 129.53125 240.886719 130.320312 241.808594 131.128906 C 242.730469 131.9375 243.632812 132.769531 244.515625 133.625 C 245.398438 134.476562 246.257812 135.351562 247.097656 136.25 C 247.933594 137.144531 248.75 138.0625 249.546875 139 C 250.339844 139.933594 251.109375 140.890625 251.855469 141.863281 Z M 251.855469 141.863281 " clip-rule="nonzero"/></clipPath><linearGradient x1="1745.122501" gradientTransform="matrix(0.711401, 0.927785, -0.927785, 0.711401, -885.983864, -1689.230479)" y1="244.834" x2="1925.029628" gradientUnits="userSpaceOnUse" y2="244.834" id="id5"><stop stop-opacity="1" stop-color="rgb(0%, 0%, 0%)" offset="0"/><stop stop-opacity="1" stop-color="rgb(0%, 0%, 0%)" offset="0.125"/><stop stop-opacity="1" stop-color="rgb(0%, 0%, 0%)" offset="0.140625"/><stop stop-opacity="1" stop-color="rgb(0.0411987%, 0.0289917%, 0.146484%)" offset="0.148438"/><stop stop-opacity="1" stop-color="rgb(0.146484%, 0.106812%, 0.524902%)" offset="0.152344"/><stop stop-opacity="1" stop-color="rgb(0.212097%, 0.15564%, 0.75531%)" offset="0.15625"/><stop stop-opacity="1" stop-color="rgb(0.276184%, 0.202942%, 0.985718%)" offset="0.160156"/><stop stop-opacity="1" stop-color="rgb(0.340271%, 0.250244%, 1.216125%)" offset="0.164062"/><stop stop-opacity="1" stop-color="rgb(0.404358%, 0.297546%, 1.446533%)" offset="0.167969"/><stop stop-opacity="1" stop-color="rgb(0.469971%, 0.344849%, 1.676941%)" offset="0.171875"/><stop stop-opacity="1" stop-color="rgb(0.534058%, 0.392151%, 1.907349%)" offset="0.175781"/><stop stop-opacity="1" stop-color="rgb(0.59967%, 0.439453%, 2.137756%)" offset="0.179687"/><stop stop-opacity="1" stop-color="rgb(0.663757%, 0.486755%, 2.366638%)" offset="0.183594"/><stop stop-opacity="1" stop-color="rgb(0.72937%, 0.534058%, 2.597046%)" offset="0.1875"/><stop stop-opacity="1" stop-color="rgb(0.793457%, 0.58136%, 2.827454%)" offset="0.191406"/><stop stop-opacity="1" stop-color="rgb(0.85907%, 0.628662%, 3.057861%)" offset="0.195312"/><stop stop-opacity="1" stop-color="rgb(0.923157%, 0.675964%, 3.288269%)" offset="0.199219"/><stop stop-opacity="1" stop-color="rgb(0.987244%, 0.724792%, 3.518677%)" offset="0.203125"/><stop stop-opacity="1" stop-color="rgb(1.051331%, 0.772095%, 3.749084%)" offset="0.207031"/><stop stop-opacity="1" stop-color="rgb(1.116943%, 0.819397%, 3.979492%)" offset="0.210937"/><stop stop-opacity="1" stop-color="rgb(1.18103%, 0.866699%, 4.2099%)" offset="0.214844"/><stop stop-opacity="1" stop-color="rgb(1.246643%, 0.914001%, 4.440308%)" offset="0.21875"/><stop stop-opacity="1" stop-color="rgb(1.31073%, 0.961304%, 4.670715%)" offset="0.222656"/><stop stop-opacity="1" stop-color="rgb(1.376343%, 1.008606%, 4.901123%)" offset="0.226562"/><stop stop-opacity="1" stop-color="rgb(1.44043%, 1.055908%, 5.131531%)" offset="0.230469"/><stop stop-opacity="1" stop-color="rgb(1.506042%, 1.10321%, 5.361938%)" offset="0.234375"/><stop stop-opacity="1" stop-color="rgb(1.570129%, 1.150513%, 5.592346%)" offset="0.238281"/><stop stop-opacity="1" stop-color="rgb(1.634216%, 1.199341%, 5.822754%)" offset="0.242187"/><stop stop-opacity="1" stop-color="rgb(1.698303%, 1.246643%, 6.053162%)" offset="0.246094"/><stop stop-opacity="1" stop-color="rgb(1.763916%, 1.293945%, 6.283569%)" offset="0.25"/><stop stop-opacity="1" stop-color="rgb(1.828003%, 1.341248%, 6.512451%)" offset="0.253906"/><stop stop-opacity="1" stop-color="rgb(1.893616%, 1.38855%, 6.742859%)" offset="0.257812"/><stop stop-opacity="1" stop-color="rgb(1.957703%, 1.435852%, 6.973267%)" offset="0.261719"/><stop stop-opacity="1" stop-color="rgb(2.023315%, 1.483154%, 7.203674%)" offset="0.265625"/><stop stop-opacity="1" stop-color="rgb(2.087402%, 1.530457%, 7.434082%)" offset="0.269531"/><stop stop-opacity="1" stop-color="rgb(2.153015%, 1.577759%, 7.66449%)" offset="0.273438"/><stop stop-opacity="1" stop-color="rgb(2.217102%, 1.625061%, 7.894897%)" offset="0.277344"/><stop stop-opacity="1" stop-color="rgb(2.281189%, 1.673889%, 8.125305%)" offset="0.28125"/><stop stop-opacity="1" stop-color="rgb(2.345276%, 1.721191%, 8.355713%)" offset="0.285156"/><stop stop-opacity="1" stop-color="rgb(2.410889%, 1.768494%, 8.586121%)" offset="0.289062"/><stop stop-opacity="1" stop-color="rgb(2.474976%, 1.815796%, 8.816528%)" offset="0.292969"/><stop stop-opacity="1" stop-color="rgb(2.540588%, 1.863098%, 9.046936%)" offset="0.296875"/><stop stop-opacity="1" stop-color="rgb(2.604675%, 1.9104%, 9.277344%)" offset="0.300781"/><stop stop-opacity="1" stop-color="rgb(2.670288%, 1.957703%, 9.507751%)" offset="0.304687"/><stop stop-opacity="1" stop-color="rgb(2.734375%, 2.005005%, 9.738159%)" offset="0.308594"/><stop stop-opacity="1" stop-color="rgb(2.799988%, 2.052307%, 9.968567%)" offset="0.3125"/><stop stop-opacity="1" stop-color="rgb(2.864075%, 2.099609%, 10.197449%)" offset="0.316406"/><stop stop-opacity="1" stop-color="rgb(2.928162%, 2.146912%, 10.427856%)" offset="0.320312"/><stop stop-opacity="1" stop-color="rgb(2.992249%, 2.194214%, 10.658264%)" offset="0.324219"/><stop stop-opacity="1" stop-color="rgb(3.057861%, 2.243042%, 10.888672%)" offset="0.328125"/><stop stop-opacity="1" stop-color="rgb(3.121948%, 2.290344%, 11.11908%)" offset="0.332031"/><stop stop-opacity="1" stop-color="rgb(3.187561%, 2.337646%, 11.349487%)" offset="0.335937"/><stop stop-opacity="1" stop-color="rgb(3.251648%, 2.384949%, 11.579895%)" offset="0.339844"/><stop stop-opacity="1" stop-color="rgb(3.317261%, 2.432251%, 11.810303%)" offset="0.34375"/><stop stop-opacity="1" stop-color="rgb(3.381348%, 2.479553%, 12.04071%)" offset="0.347656"/><stop stop-opacity="1" stop-color="rgb(3.44696%, 2.526855%, 12.271118%)" offset="0.351562"/><stop stop-opacity="1" stop-color="rgb(3.511047%, 2.574158%, 12.501526%)" offset="0.355469"/><stop stop-opacity="1" stop-color="rgb(3.575134%, 2.62146%, 12.731934%)" offset="0.359375"/><stop stop-opacity="1" stop-color="rgb(3.639221%, 2.668762%, 12.962341%)" offset="0.363281"/><stop stop-opacity="1" stop-color="rgb(3.704834%, 2.71759%, 13.192749%)" offset="0.367187"/><stop stop-opacity="1" stop-color="rgb(3.768921%, 2.764893%, 13.423157%)" offset="0.371094"/><stop stop-opacity="1" stop-color="rgb(3.834534%, 2.812195%, 13.653564%)" offset="0.375"/><stop stop-opacity="1" stop-color="rgb(3.898621%, 2.859497%, 13.882446%)" offset="0.378906"/><stop stop-opacity="1" stop-color="rgb(3.964233%, 2.906799%, 14.112854%)" offset="0.382812"/><stop stop-opacity="1" stop-color="rgb(4.02832%, 2.954102%, 14.343262%)" offset="0.386719"/><stop stop-opacity="1" stop-color="rgb(4.093933%, 3.001404%, 14.573669%)" offset="0.390625"/><stop stop-opacity="1" stop-color="rgb(4.15802%, 3.048706%, 14.804077%)" offset="0.394531"/><stop stop-opacity="1" stop-color="rgb(4.222107%, 3.096008%, 15.034485%)" offset="0.398437"/><stop stop-opacity="1" stop-color="rgb(4.286194%, 3.143311%, 15.264893%)" offset="0.402344"/><stop stop-opacity="1" stop-color="rgb(4.351807%, 3.190613%, 15.4953%)" offset="0.40625"/><stop stop-opacity="1" stop-color="rgb(4.415894%, 3.237915%, 15.725708%)" offset="0.410156"/><stop stop-opacity="1" stop-color="rgb(4.481506%, 3.286743%, 15.956116%)" offset="0.414062"/><stop stop-opacity="1" stop-color="rgb(4.545593%, 3.334045%, 16.186523%)" offset="0.417969"/><stop stop-opacity="1" stop-color="rgb(4.611206%, 3.381348%, 16.416931%)" offset="0.421875"/><stop stop-opacity="1" stop-color="rgb(4.675293%, 3.42865%, 16.647339%)" offset="0.425781"/><stop stop-opacity="1" stop-color="rgb(4.740906%, 3.475952%, 16.877747%)" offset="0.429687"/><stop stop-opacity="1" stop-color="rgb(4.804993%, 3.523254%, 17.108154%)" offset="0.433594"/><stop stop-opacity="1" stop-color="rgb(4.86908%, 3.570557%, 17.338562%)" offset="0.4375"/><stop stop-opacity="1" stop-color="rgb(4.933167%, 3.617859%, 17.567444%)" offset="0.441406"/><stop stop-opacity="1" stop-color="rgb(4.998779%, 3.665161%, 17.797852%)" offset="0.445312"/><stop stop-opacity="1" stop-color="rgb(5.062866%, 3.712463%, 18.028259%)" offset="0.449219"/><stop stop-opacity="1" stop-color="rgb(5.128479%, 3.761292%, 18.258667%)" offset="0.453125"/><stop stop-opacity="1" stop-color="rgb(5.192566%, 3.808594%, 18.489075%)" offset="0.457031"/><stop stop-opacity="1" stop-color="rgb(5.258179%, 3.855896%, 18.719482%)" offset="0.460937"/><stop stop-opacity="1" stop-color="rgb(5.322266%, 3.903198%, 18.94989%)" offset="0.464844"/><stop stop-opacity="1" stop-color="rgb(5.387878%, 3.9505%, 19.180298%)" offset="0.46875"/><stop stop-opacity="1" stop-color="rgb(5.451965%, 3.997803%, 19.410706%)" offset="0.472656"/><stop stop-opacity="1" stop-color="rgb(5.516052%, 4.045105%, 19.641113%)" offset="0.476562"/><stop stop-opacity="1" stop-color="rgb(5.580139%, 4.092407%, 19.871521%)" offset="0.480469"/><stop stop-opacity="1" stop-color="rgb(5.645752%, 4.139709%, 20.101929%)" offset="0.484375"/><stop stop-opacity="1" stop-color="rgb(5.709839%, 4.187012%, 20.332336%)" offset="0.488281"/><stop stop-opacity="1" stop-color="rgb(5.775452%, 4.234314%, 20.562744%)" offset="0.492187"/><stop stop-opacity="1" stop-color="rgb(5.839539%, 4.281616%, 20.793152%)" offset="0.496094"/><stop stop-opacity="1" stop-color="rgb(5.905151%, 4.330444%, 21.02356%)" offset="0.5"/><stop stop-opacity="1" stop-color="rgb(5.969238%, 4.377747%, 21.252441%)" offset="0.503906"/><stop stop-opacity="1" stop-color="rgb(6.034851%, 4.425049%, 21.482849%)" offset="0.507812"/><stop stop-opacity="1" stop-color="rgb(6.098938%, 4.472351%, 21.713257%)" offset="0.511719"/><stop stop-opacity="1" stop-color="rgb(6.163025%, 4.519653%, 21.943665%)" offset="0.515625"/><stop stop-opacity="1" stop-color="rgb(6.227112%, 4.566956%, 22.174072%)" offset="0.519531"/><stop stop-opacity="1" stop-color="rgb(6.292725%, 4.614258%, 22.40448%)" offset="0.523437"/><stop stop-opacity="1" stop-color="rgb(6.356812%, 4.66156%, 22.634888%)" offset="0.527344"/><stop stop-opacity="1" stop-color="rgb(6.422424%, 4.708862%, 22.865295%)" offset="0.53125"/><stop stop-opacity="1" stop-color="rgb(6.486511%, 4.756165%, 23.095703%)" offset="0.535156"/><stop stop-opacity="1" stop-color="rgb(6.552124%, 4.804993%, 23.326111%)" offset="0.539062"/><stop stop-opacity="1" stop-color="rgb(6.616211%, 4.852295%, 23.556519%)" offset="0.542969"/><stop stop-opacity="1" stop-color="rgb(6.681824%, 4.899597%, 23.786926%)" offset="0.546875"/><stop stop-opacity="1" stop-color="rgb(6.745911%, 4.946899%, 24.017334%)" offset="0.550781"/><stop stop-opacity="1" stop-color="rgb(6.809998%, 4.994202%, 24.247742%)" offset="0.554687"/><stop stop-opacity="1" stop-color="rgb(6.874084%, 5.041504%, 24.478149%)" offset="0.558594"/><stop stop-opacity="1" stop-color="rgb(6.939697%, 5.088806%, 24.708557%)" offset="0.5625"/><stop stop-opacity="1" stop-color="rgb(7.003784%, 5.136108%, 24.937439%)" offset="0.566406"/><stop stop-opacity="1" stop-color="rgb(7.069397%, 5.183411%, 25.167847%)" offset="0.570312"/><stop stop-opacity="1" stop-color="rgb(7.133484%, 5.230713%, 25.398254%)" offset="0.574219"/><stop stop-opacity="1" stop-color="rgb(7.199097%, 5.279541%, 25.628662%)" offset="0.578125"/><stop stop-opacity="1" stop-color="rgb(7.263184%, 5.326843%, 25.85907%)" offset="0.582031"/><stop stop-opacity="1" stop-color="rgb(7.328796%, 5.374146%, 26.089478%)" offset="0.585937"/><stop stop-opacity="1" stop-color="rgb(7.392883%, 5.421448%, 26.319885%)" offset="0.589844"/><stop stop-opacity="1" stop-color="rgb(7.45697%, 5.46875%, 26.550293%)" offset="0.59375"/><stop stop-opacity="1" stop-color="rgb(7.722473%, 5.711365%, 27.279663%)" offset="0.597656"/><stop stop-opacity="1" stop-color="rgb(7.987976%, 5.955505%, 28.010559%)" offset="0.601562"/><stop stop-opacity="1" stop-color="rgb(8.348083%, 6.292725%, 28.977966%)" offset="0.605469"/><stop stop-opacity="1" stop-color="rgb(8.708191%, 6.63147%, 29.946899%)" offset="0.609375"/><stop stop-opacity="1" stop-color="rgb(9.068298%, 6.968689%, 30.914307%)" offset="0.613281"/><stop stop-opacity="1" stop-color="rgb(9.429932%, 7.305908%, 31.88324%)" offset="0.617187"/><stop stop-opacity="1" stop-color="rgb(9.790039%, 7.643127%, 32.850647%)" offset="0.621094"/><stop stop-opacity="1" stop-color="rgb(10.150146%, 7.981873%, 33.818054%)" offset="0.625"/><stop stop-opacity="1" stop-color="rgb(10.510254%, 8.319092%, 34.785461%)" offset="0.628906"/><stop stop-opacity="1" stop-color="rgb(10.871887%, 8.656311%, 35.754395%)" offset="0.632812"/><stop stop-opacity="1" stop-color="rgb(11.231995%, 8.99353%, 36.721802%)" offset="0.636719"/><stop stop-opacity="1" stop-color="rgb(11.593628%, 9.332275%, 37.690735%)" offset="0.640625"/><stop stop-opacity="1" stop-color="rgb(11.953735%, 9.669495%, 38.658142%)" offset="0.644531"/><stop stop-opacity="1" stop-color="rgb(12.313843%, 10.006714%, 39.627075%)" offset="0.648437"/><stop stop-opacity="1" stop-color="rgb(12.67395%, 10.343933%, 40.594482%)" offset="0.652344"/><stop stop-opacity="1" stop-color="rgb(13.035583%, 10.681152%, 41.563416%)" offset="0.65625"/><stop stop-opacity="1" stop-color="rgb(13.395691%, 11.018372%, 42.530823%)" offset="0.660156"/><stop stop-opacity="1" stop-color="rgb(13.755798%, 11.357117%, 43.499756%)" offset="0.664062"/><stop stop-opacity="1" stop-color="rgb(14.115906%, 11.694336%, 44.467163%)" offset="0.667969"/><stop stop-opacity="1" stop-color="rgb(14.477539%, 12.031555%, 45.436096%)" offset="0.671875"/><stop stop-opacity="1" stop-color="rgb(14.837646%, 12.368774%, 46.403503%)" offset="0.675781"/><stop stop-opacity="1" stop-color="rgb(15.19928%, 12.70752%, 47.372437%)" offset="0.679687"/><stop stop-opacity="1" stop-color="rgb(15.559387%, 13.044739%, 48.339844%)" offset="0.683594"/><stop stop-opacity="1" stop-color="rgb(15.919495%, 13.381958%, 49.308777%)" offset="0.6875"/><stop stop-opacity="1" stop-color="rgb(16.279602%, 13.719177%, 50.276184%)" offset="0.691406"/><stop stop-opacity="1" stop-color="rgb(16.641235%, 14.057922%, 51.245117%)" offset="0.695312"/><stop stop-opacity="1" stop-color="rgb(17.001343%, 14.395142%, 52.212524%)" offset="0.699219"/><stop stop-opacity="1" stop-color="rgb(17.36145%, 14.732361%, 53.181458%)" offset="0.703125"/><stop stop-opacity="1" stop-color="rgb(17.721558%, 15.06958%, 54.148865%)" offset="0.707031"/><stop stop-opacity="1" stop-color="rgb(18.083191%, 15.406799%, 55.117798%)" offset="0.710937"/><stop stop-opacity="1" stop-color="rgb(18.443298%, 15.744019%, 56.085205%)" offset="0.714844"/><stop stop-opacity="1" stop-color="rgb(18.804932%, 16.082764%, 57.054138%)" offset="0.71875"/><stop stop-opacity="1" stop-color="rgb(19.165039%, 16.419983%, 58.021545%)" offset="0.722656"/><stop stop-opacity="1" stop-color="rgb(19.525146%, 16.757202%, 58.990479%)" offset="0.726562"/><stop stop-opacity="1" stop-color="rgb(19.885254%, 17.094421%, 59.957886%)" offset="0.730469"/><stop stop-opacity="1" stop-color="rgb(20.246887%, 17.433167%, 60.926819%)" offset="0.734375"/><stop stop-opacity="1" stop-color="rgb(20.606995%, 17.770386%, 61.894226%)" offset="0.738281"/><stop stop-opacity="1" stop-color="rgb(20.967102%, 18.107605%, 62.863159%)" offset="0.742187"/><stop stop-opacity="1" stop-color="rgb(21.327209%, 18.444824%, 63.830566%)" offset="0.746094"/><stop stop-opacity="1" stop-color="rgb(21.688843%, 18.783569%, 64.7995%)" offset="0.75"/><stop stop-opacity="1" stop-color="rgb(22.04895%, 19.120789%, 65.766907%)" offset="0.753906"/><stop stop-opacity="1" stop-color="rgb(22.410583%, 19.458008%, 66.73584%)" offset="0.757812"/><stop stop-opacity="1" stop-color="rgb(22.770691%, 19.795227%, 67.703247%)" offset="0.761719"/><stop stop-opacity="1" stop-color="rgb(23.130798%, 20.133972%, 68.67218%)" offset="0.765625"/><stop stop-opacity="1" stop-color="rgb(23.490906%, 20.471191%, 69.639587%)" offset="0.769531"/><stop stop-opacity="1" stop-color="rgb(23.852539%, 20.808411%, 70.608521%)" offset="0.773437"/><stop stop-opacity="1" stop-color="rgb(24.212646%, 21.14563%, 71.575928%)" offset="0.777344"/><stop stop-opacity="1" stop-color="rgb(24.572754%, 21.482849%, 72.544861%)" offset="0.78125"/><stop stop-opacity="1" stop-color="rgb(24.932861%, 21.820068%, 73.512268%)" offset="0.785156"/><stop stop-opacity="1" stop-color="rgb(25.294495%, 22.158813%, 74.481201%)" offset="0.789062"/><stop stop-opacity="1" stop-color="rgb(25.654602%, 22.496033%, 75.448608%)" offset="0.792969"/><stop stop-opacity="1" stop-color="rgb(26.016235%, 22.833252%, 76.417542%)" offset="0.796875"/><stop stop-opacity="1" stop-color="rgb(26.376343%, 23.170471%, 77.384949%)" offset="0.800781"/><stop stop-opacity="1" stop-color="rgb(26.73645%, 23.509216%, 78.353882%)" offset="0.804688"/><stop stop-opacity="1" stop-color="rgb(27.096558%, 23.846436%, 79.321289%)" offset="0.808594"/><stop stop-opacity="1" stop-color="rgb(27.458191%, 24.183655%, 80.290222%)" offset="0.8125"/><stop stop-opacity="1" stop-color="rgb(27.818298%, 24.520874%, 81.257629%)" offset="0.816406"/><stop stop-opacity="1" stop-color="rgb(28.178406%, 24.859619%, 82.226562%)" offset="0.820312"/><stop stop-opacity="1" stop-color="rgb(28.538513%, 25.196838%, 83.19397%)" offset="0.824219"/><stop stop-opacity="1" stop-color="rgb(28.900146%, 25.534058%, 84.162903%)" offset="0.828125"/><stop stop-opacity="1" stop-color="rgb(29.260254%, 25.871277%, 85.13031%)" offset="0.832031"/><stop stop-opacity="1" stop-color="rgb(29.621887%, 26.208496%, 86.099243%)" offset="0.835937"/><stop stop-opacity="1" stop-color="rgb(29.981995%, 26.545715%, 87.06665%)" offset="0.839844"/><stop stop-opacity="1" stop-color="rgb(30.342102%, 26.88446%, 88.035583%)" offset="0.84375"/><stop stop-opacity="1" stop-color="rgb(30.670166%, 27.191162%, 88.917542%)" offset="0.847656"/><stop stop-opacity="1" stop-color="rgb(30.999756%, 27.49939%, 89.7995%)" offset="0.851562"/><stop stop-opacity="1" stop-color="rgb(30.999756%, 27.49939%, 89.7995%)" offset="0.859375"/><stop stop-opacity="1" stop-color="rgb(30.999756%, 27.49939%, 89.7995%)" offset="0.875"/><stop stop-opacity="1" stop-color="rgb(30.999756%, 27.49939%, 89.7995%)" offset="1"/></linearGradient></defs><g clip-path="url(#id1)"><g clip-path="url(#id2)"><g clip-path="url(#id3)"><g clip-path="url(#id4)"><path fill="url(#id5)" d="M 211.804688 40.050781 L 44.886719 168.035156 L 172.875 334.949219 L 339.789062 206.964844 Z M 211.804688 40.050781 " fill-rule="nonzero"/></g></g></g></g><g fill="rgb(25.099182%, 21.569824%, 81.959534%)" fill-opacity="1"><g transform="translate(168.356932, 202.596402)"><g><path d="M 10.828125 -37.148438 L 2.917969 0 L 9.816406 0 L 15.972656 -29.082031 L 21.972656 0 L 26.058594 0 L 44.417969 -29.136719 L 38.210938 0 L 45.109375 0 L 53.015625 -37.148438 L 43.253906 -37.148438 L 26.214844 -10.1875 L 20.644531 -37.148438 Z M 10.828125 -37.148438 "/></g></g></g><g fill="rgb(100%, 100%, 100%)" fill-opacity="1"><g transform="translate(194.215999, 141.366786)"><g/></g></g><g fill="rgb(100%, 100%, 100%)" fill-opacity="1"><g transform="translate(194.215999, 239.289254)"><g/></g></g></svg>